<svg width="102" height="77" xmlns="http://www.w3.org/2000/svg">

 <g>
  <title>background</title>
  <rect fill="none" id="canvas_background" height="79" width="104" y="-1" x="-1"/>
 </g>
 <g>
  <title>Layer 1</title>
  <path id="svg_1" d="m61.201673,8.214c1.611,0 3.116,0.808 4.011,2.147l4.368,6.956c0.896,1.342 2.399,2.146 4.014,2.146l14.294,0c2.664,0 4.822,2.16 4.822,4.822l0,40.178c0,2.664 -2.158,4.822 -4.822,4.822l-73.928,0c-2.662,0 -4.822,-2.158 -4.822,-4.822l0,-40.177c0,-2.662 2.16,-4.822 4.822,-4.822l14.294,0c1.612,0 3.117,-0.805 4.012,-2.146l4.37,-6.956c0.895,-1.34 2.397,-2.147 4.011,-2.147l20.554,0m0,-3.215l-20.555,0c-2.692,0 -5.191,1.339 -6.686,3.578l-4.369,6.956c-0.299,0.447 -0.799,0.716 -1.338,0.716l-14.293,0c-4.431,0 -8.036,3.605 -8.036,8.036l0,40.178c0,4.433 3.605,8.036 8.036,8.036l73.928,0c4.433,0 8.036,-3.604 8.036,-8.036l0,-40.178c0,-4.431 -3.604,-8.036 -8.036,-8.036l-14.294,0c-0.539,0 -1.039,-0.269 -1.338,-0.716l-4.369,-6.956c-1.494,-2.239 -3.993,-3.578 -6.686,-3.578"/>
  <path id="svg_2" d="m71.775673,40.358c-0.425,-10.72 -9.225,-19.286 -20.048,-19.286c-5.258,0 -10.029,2.037 -13.61,5.344l3.415,3.414c2.706,-2.438 6.274,-3.937 10.195,-3.937c8.148,0 14.805,6.421 15.227,14.465l-5.584,0l8.036,10.044l8.035,-10.044l-5.666,0z"/>
  <path id="svg_3" d="m51.728673,56.429c-8.011,0 -14.566,-6.209 -15.187,-14.062l5.544,0l-8.036,-10.045l-8.036,10.045l5.702,0c0.626,10.528 9.326,18.884 20.013,18.884c5.258,0 10.028,-2.035 13.61,-5.343l-3.415,-3.415c-2.706,2.439 -6.275,3.936 -10.195,3.936"/>
 </g>
</svg>